# xmcd CD database file
#
# Track frame offsets:
#	150
#	15566
#	32256
#	45852
#	61269
#	75865
#	90883
#	104869
#	117609
#	132975
#	145116
#	161773
#	178329
#	190290
#
# Disc length: 2764 seconds
#
# Revision: 0
# Processed by: cddbd v1.5.1PL0 Copyright (c) Steve Scherf et al.
# Submitted via: CDex 1.51
#
DISCID=af0aca0e
DTITLE=Rick Monroe - Against the Grain
DYEAR=2005
DGENRE=Country
TTITLE0=I Remember the Music
TTITLE1=Dance Hall King
TTITLE2=Midnight Rider
TTITLE3=Love Bug
TTITLE4=X On the Map
TTITLE5=Grace
TTITLE6=Type of Guy
TTITLE7=Blue Skies
TTITLE8=Some Kind of Woman
TTITLE9=Dodged A Bullet
TTITLE10=Runaway
TTITLE11=Wrapped In You
TTITLE12=One More 
TTITLE13=Loves Lost and Found
EXTD=YEAR: 2005
EXTT0=
EXTT1=
EXTT2=
EXTT3=
EXTT4=
EXTT5=
EXTT6=
EXTT7=
EXTT8=
EXTT9=
EXTT10=
EXTT11=
EXTT12=
EXTT13=
PLAYORDER=
